<?xml version="1.0" encoding="UTF-8" standalone="no"?>
<!-- Generator: Gravit.io -->
<svg xmlns="http://www.w3.org/2000/svg" xmlns:xlink="http://www.w3.org/1999/xlink" style="isolation:isolate" viewBox="0 0 500 339" width="500pt" height="339pt"><defs><clipPath id="_clipPath_46YUOu2metB4nv2xGRFXxfDpb3gs1ZhB"><rect width="500" height="339"/></clipPath></defs><g clip-path="url(#_clipPath_46YUOu2metB4nv2xGRFXxfDpb3gs1ZhB)"><g><g><path d=" M 415 189.21 C 410.87 172.44 390.52 149.04 372.9 142.65 C 350.4 134.49 339.41 147.77 319.7 145.5 C 266.48 139.36 245.13 97.08 217.7 58.82 C 157 -25.97 36.78 11.42 71.3 122.45 C 92.04 189.18 171.3 290.02 251.48 222.88 C 286.12 193.88 271.11 177.32 317.76 202.76 C 336.17 212.8 433.7 265.17 415 189.21 Z " fill="rgb(82,113,255)"/><g opacity="0.9"><path d=" M 415 189.21 C 410.87 172.44 390.52 149.04 372.9 142.65 C 350.4 134.49 339.41 147.77 319.7 145.5 C 266.48 139.36 245.13 97.08 217.7 58.82 C 157 -25.97 36.78 11.42 71.3 122.45 C 92.04 189.18 171.3 290.02 251.48 222.88 C 286.12 193.88 271.11 177.32 317.76 202.76 C 336.17 212.8 433.7 265.17 415 189.21 Z " fill="rgb(255,255,255)"/></g></g><g><ellipse vector-effect="non-scaling-stroke" cx="249.99999999999997" cy="321.21000000000004" rx="193.88999999999996" ry="11.319999999999993" fill="rgb(245,245,245)"/></g><g><path d=" M 369.88 315.5 L 368.81 315.5 C 368.348 315.465 367.984 315.093 367.96 314.63 L 361.38 268.81 L 366.38 268.81 L 370.74 314.33 C 370.789 314.6 370.724 314.879 370.562 315.1 C 370.399 315.321 370.153 315.466 369.88 315.5 L 369.88 315.5 Z " fill="rgb(82,113,255)"/><g opacity="0.30000000000000004"><path d=" M 369.88 315.5 L 368.81 315.5 C 368.348 315.465 367.984 315.093 367.96 314.63 L 361.38 268.81 L 366.38 268.81 L 370.74 314.33 C 370.789 314.6 370.724 314.879 370.562 315.1 C 370.399 315.321 370.153 315.466 369.88 315.5 L 369.88 315.5 Z " fill="rgb(0,0,0)"/></g><path d=" M 383.6 315.5 L 382.53 315.5 C 382.068 315.465 381.704 315.093 381.68 314.63 L 375.1 268.81 L 380.1 268.81 L 384.47 314.33 C 384.519 314.602 384.453 314.882 384.288 315.103 C 384.123 315.325 383.874 315.468 383.6 315.5 Z " fill="rgb(82,113,255)"/><g opacity="0.30000000000000004"><path d=" M 383.6 315.5 L 382.53 315.5 C 382.068 315.465 381.704 315.093 381.68 314.63 L 375.1 268.81 L 380.1 268.81 L 384.47 314.33 C 384.519 314.602 384.453 314.882 384.288 315.103 C 384.123 315.325 383.874 315.468 383.6 315.5 Z " fill="rgb(0,0,0)"/></g><path d=" M 307.16 315.5 L 308.23 315.5 C 308.692 315.465 309.056 315.093 309.08 314.63 L 315.66 268.81 L 310.66 268.81 L 306.3 314.33 C 306.251 314.6 306.316 314.879 306.478 315.1 C 306.641 315.321 306.887 315.466 307.16 315.5 L 307.16 315.5 Z " fill="rgb(82,113,255)"/><g opacity="0.30000000000000004"><path d=" M 307.16 315.5 L 308.23 315.5 C 308.692 315.465 309.056 315.093 309.08 314.63 L 315.66 268.81 L 310.66 268.81 L 306.3 314.33 C 306.251 314.6 306.316 314.879 306.478 315.1 C 306.641 315.321 306.887 315.466 307.16 315.5 L 307.16 315.5 Z " fill="rgb(0,0,0)"/></g><path d=" M 293.44 315.5 L 294.51 315.5 C 294.972 315.465 295.336 315.093 295.36 314.63 L 301.94 268.81 L 296.94 268.81 L 292.58 314.33 C 292.531 314.6 292.596 314.879 292.758 315.1 C 292.921 315.321 293.167 315.466 293.44 315.5 L 293.44 315.5 Z " fill="rgb(82,113,255)"/><g opacity="0.30000000000000004"><path d=" M 293.44 315.5 L 294.51 315.5 C 294.972 315.465 295.336 315.093 295.36 314.63 L 301.94 268.81 L 296.94 268.81 L 292.58 314.33 C 292.531 314.6 292.596 314.879 292.758 315.1 C 292.921 315.321 293.167 315.466 293.44 315.5 L 293.44 315.5 Z " fill="rgb(0,0,0)"/></g><path d=" M 275.66 214.48 L 309.34 214.48 C 315.34 193.73 336.82 177.36 358.84 177.36 L 369.78 177.36 C 392.78 177.36 407.7 195.29 403 217.42 C 402.121 221.491 400.677 225.419 398.71 229.09 L 393.4 261.28 C 392.72 265.44 389.4 268.81 386 268.81 L 284.62 268.81 C 281.22 268.81 277.9 265.44 277.22 261.28 L 270.74 221.97 C 270.05 217.85 272.26 214.48 275.66 214.48 Z " fill="rgb(82,113,255)"/><g opacity="0.5"><path d=" M 275.66 214.48 L 309.34 214.48 C 315.34 193.73 336.82 177.36 358.84 177.36 L 369.78 177.36 C 392.78 177.36 407.7 195.29 403 217.42 C 402.121 221.491 400.677 225.419 398.71 229.09 L 393.4 261.28 C 392.72 265.44 389.4 268.81 386 268.81 L 284.62 268.81 C 281.22 268.81 277.9 265.44 277.22 261.28 L 270.74 221.97 C 270.05 217.85 272.26 214.48 275.66 214.48 Z " fill="rgb(255,255,255)"/></g><path d=" M 267.23 303.65 L 275.57 307.47 C 275.865 307.594 276.007 307.932 275.89 308.23 L 273.26 315.02 C 272.933 315.742 272.084 316.064 271.36 315.74 C 268.48 314.36 267.17 313.55 263.5 311.87 C 259.621 309.953 255.873 307.782 252.28 305.37 C 249.56 303.37 251.56 300.67 252.91 301.27 C 259.01 303.96 262.91 304.2 265.74 303.52 C 266.237 303.391 266.763 303.436 267.23 303.65 Z " fill="rgb(38,50,56)"/><path d=" M 326.38 201.4 C 326.38 201.4 273.05 202.06 272.22 223.08 C 271.04 253.3 266.58 303.47 266.58 303.47 L 275.58 307.47 C 275.58 307.47 291.34 257.13 291.9 233.53 C 306.9 229.81 345.47 233.53 350 221.27 C 352.22 214.893 352.808 208.062 351.71 201.4 L 326.38 201.4 Z " fill="rgb(82,113,255)"/><g opacity="0.2"><path d=" M 326.38 201.4 C 326.38 201.4 273.05 202.06 272.22 223.08 C 271.04 253.3 266.58 303.47 266.58 303.47 L 275.58 307.47 C 275.58 307.47 291.34 257.13 291.9 233.53 C 306.9 229.81 345.47 233.53 350 221.27 C 352.22 214.893 352.808 208.062 351.71 201.4 L 326.38 201.4 Z " fill="rgb(0,0,0)"/></g><path d=" M 337.73 146.09 C 337.26 148.03 336.79 149.78 336.26 151.6 C 335.73 153.42 335.18 155.19 334.6 156.97 C 333.43 160.53 332.14 164.07 330.66 167.57 C 329.178 171.148 327.457 174.622 325.51 177.97 C 324.487 179.74 323.359 181.446 322.13 183.08 C 320.776 184.889 319.216 186.533 317.48 187.98 L 317.33 188.11 L 317.01 188.35 C 316 189.009 314.849 189.42 313.65 189.55 C 312.896 189.642 312.134 189.642 311.38 189.55 C 310.332 189.421 309.302 189.173 308.31 188.81 C 306.772 188.256 305.278 187.587 303.84 186.81 C 301.274 185.383 298.793 183.807 296.41 182.09 C 294.09 180.42 291.85 178.69 289.67 176.89 C 287.49 175.09 285.4 173.25 283.33 171.27 C 282.232 170.204 282.091 168.49 282.999 167.258 C 283.908 166.026 285.587 165.656 286.93 166.39 L 286.98 166.39 C 289.34 167.7 291.72 169.09 294.11 170.39 C 296.5 171.69 298.86 173 301.23 174.22 C 303.6 175.44 305.98 176.6 308.23 177.54 C 309.262 177.98 310.329 178.335 311.42 178.6 C 311.744 178.697 312.082 178.741 312.42 178.73 C 312.49 178.73 312.42 178.73 312.21 178.73 C 311.701 178.788 311.213 178.97 310.79 179.26 L 310.31 179.62 C 311.295 178.661 312.164 177.591 312.9 176.43 C 313.778 175.112 314.582 173.746 315.31 172.34 C 316.843 169.322 318.215 166.224 319.42 163.06 C 320.65 159.84 321.8 156.54 322.87 153.2 C 323.94 149.86 324.94 146.43 325.87 143.2 L 325.87 143.08 C 326.753 139.853 330.064 137.934 333.303 138.77 C 336.542 139.607 338.509 142.889 337.72 146.14 L 337.73 146.09 Z " fill="rgb(38,50,56)"/><path d=" M 316.11 307.97 L 326.11 307.97 C 326.279 307.962 326.444 308.022 326.568 308.137 C 326.692 308.251 326.765 308.411 326.77 308.58 L 327.26 316.49 C 327.26 317.357 326.566 318.064 325.7 318.08 C 322.22 318.02 320.55 317.81 316.15 317.81 C 313.45 317.81 307.99 318.09 304.25 318.09 C 300.51 318.09 300.62 314.4 302.2 314.09 C 309.31 312.59 312.06 310.52 314.57 308.54 C 315.008 308.187 315.548 307.987 316.11 307.97 Z " fill="rgb(38,50,56)"/><path d=" M 340.75 201.4 C 340.75 201.4 292.38 205.48 293.57 226.49 C 294.87 249.49 316.11 307.99 316.11 307.99 L 325.89 307.99 C 325.89 307.99 317.52 254.42 314.57 230.99 C 328.21 230.99 359.83 233.55 364.37 221.26 C 366.59 214.883 367.175 208.051 366.07 201.39 L 340.75 201.4 Z " fill="rgb(82,113,255)"/><path d=" M 287.68 167.37 C 286.925 166.141 286.011 165.018 284.96 164.03 C 282.96 165.89 281.87 171.3 281.87 171.3 L 284.6 171.54 C 284.6 171.54 287.74 170.52 287.68 167.37 Z " fill="rgb(82,113,255)"/><path d=" M 277.64 162.51 L 274.53 161.16 C 273.694 160.799 272.72 161.111 272.25 161.89 L 270.77 164.33 C 270.35 165.036 270.452 165.936 271.02 166.53 L 275.29 170.98 L 282.41 170.69 C 283.229 170.662 283.969 170.191 284.34 169.46 L 285.16 167.85 C 285.695 166.847 285.389 165.601 284.45 164.96 C 282.14 163.44 277.64 162.51 277.64 162.51 Z " fill="rgb(255,195,189)"/><path d=" M 325.92 144.04 C 324.5 153.04 322.65 172.47 326.42 201.77 L 366.07 201.4 C 365.83 181.09 369.01 162.03 372.12 143.4 C 372.369 141.922 372.009 140.406 371.122 139.198 C 370.234 137.99 368.895 137.194 367.41 136.99 C 356.039 135.66 344.551 135.66 333.18 136.99 C 329.477 137.496 326.534 140.353 325.92 144.04 Z " fill="rgb(38,50,56)"/><path d=" M 372.48 140.87 C 373.65 143.76 374.58 146.53 375.54 149.39 C 376.5 152.25 377.32 155.12 378.11 158.03 C 378.9 160.94 379.59 163.91 380.11 166.94 C 380.715 170.034 381.119 173.164 381.32 176.31 C 381.38 177.12 381.39 177.96 381.4 178.8 L 381.4 180.08 C 381.386 181.394 381.042 182.683 380.4 183.83 C 379.973 184.575 379.41 185.233 378.74 185.77 C 378.428 186.02 378.093 186.241 377.74 186.43 C 377.421 186.606 377.086 186.754 376.74 186.87 C 375.799 187.22 374.803 187.396 373.8 187.39 C 372.614 187.363 371.437 187.178 370.3 186.84 C 368.636 186.34 367.017 185.701 365.46 184.93 C 364.01 184.21 362.65 183.46 361.32 182.68 C 356.15 179.593 351.243 176.084 346.65 172.19 C 345.454 171.209 345.182 169.488 346.017 168.186 C 346.852 166.884 348.529 166.413 349.92 167.09 L 349.99 167.09 C 355.16 169.55 360.42 172.09 365.54 174.2 C 366.82 174.72 368.09 175.2 369.34 175.63 C 370.448 176.037 371.589 176.348 372.75 176.56 C 373.21 176.64 373.62 176.63 373.57 176.56 C 373.299 176.535 373.026 176.583 372.78 176.7 C 372.622 176.76 372.469 176.831 372.32 176.91 C 372.129 177.012 371.948 177.133 371.78 177.27 C 371.384 177.579 371.046 177.954 370.78 178.38 C 370.48 178.878 370.302 179.44 370.26 180.02 L 370.21 179.11 C 370.15 178.49 370.1 177.88 370.01 177.24 C 369.177 171.818 367.926 166.469 366.27 161.24 C 364.67 155.87 362.83 150.39 360.96 145.18 L 360.96 145.13 C 359.886 142.008 361.481 138.597 364.566 137.421 C 367.65 136.244 371.112 137.726 372.39 140.77 L 372.48 140.87 Z " fill="rgb(38,50,56)"/><path d=" M 356.63 116.88 L 351.84 120.88 L 345.3 126.31 C 345.502 127.176 345.642 128.055 345.72 128.94 C 346.03 132.1 345.34 135 341.51 136.47 C 340.034 136.953 338.866 138.095 338.35 139.56 C 337.83 141.23 338.44 143.1 343.7 143.1 C 351.43 143.1 355.46 139.66 356.98 137.97 C 357.4 137.486 357.429 136.776 357.05 136.26 C 354 131.9 355.38 122.3 356.63 116.88 Z " fill="rgb(255,195,189)"/><path d=" M 343.51 141.38 C 343.846 141.768 344.077 142.237 344.18 142.74 C 344.577 142.202 345.068 141.741 345.63 141.38 C 346.976 142.012 347.984 143.193 348.4 144.62 C 346.943 144.321 345.54 143.802 344.24 143.08 C 343.383 143.555 342.436 143.848 341.46 143.94 C 341.52 142.21 343.51 141.38 343.51 141.38 Z " fill="rgb(82,113,255)"/><path d=" M 345.63 141.38 C 347.018 143.052 347.933 145.065 348.28 147.21 C 348.28 147.21 361.08 144.01 360.48 135.66 C 359.355 135.129 358.159 134.762 356.93 134.57 C 356.93 134.57 354.18 139.57 345.63 141.38 Z " fill="rgb(82,113,255)"/><path d=" M 343.51 141.38 C 342.11 143.065 341.142 145.066 340.69 147.21 C 340.69 147.21 334.13 141.21 340.52 135.73 C 341.623 135.379 342.759 135.141 343.91 135.02 C 343.91 135.02 339.66 138.47 343.51 141.38 Z " fill="rgb(82,113,255)"/><g opacity="0.2"><path d=" M 345.3 126.28 C 345.501 127.149 345.641 128.031 345.72 128.92 C 348.16 128.43 351.41 125.84 351.72 123.35 C 351.84 122.526 351.87 121.691 351.81 120.86 L 345.3 126.28 Z " fill="rgb(0,0,0)"/></g><path d=" M 338.3 99.66 C 332.3 103.93 335.64 113.94 340.78 110.11 C 345.92 106.28 343.2 96.18 338.3 99.66 Z " fill="rgb(38,50,56)"/><path d=" M 358.61 108.58 C 356.94 116.24 356.36 120.8 351.83 124.3 C 348.856 126.649 344.825 127.155 341.363 125.615 C 337.9 124.074 335.577 120.742 335.33 116.96 C 334.73 109.82 337.56 98.48 345.62 96.31 C 349.151 95.257 352.976 96.167 355.655 98.698 C 358.333 101.228 359.46 104.994 358.61 108.58 L 358.61 108.58 Z " fill="rgb(255,195,189)"/><path d=" M 355.06 102.89 C 350.81 101.72 339.85 104.51 335.96 100.36 C 331.79 95.91 337.87 93.74 339.67 95.29 C 337.4 92.69 338.24 89.91 341.46 90.16 C 343.81 90.34 344.55 92.94 344.55 92.94 C 344.55 92.94 344.16 88.39 348.2 88.71 C 351.86 88.99 351.87 93.93 351.87 93.93 C 351.87 93.93 360.61 91.46 363.53 99.8 C 369.03 99.68 368.91 111.26 357.84 115.38 C 353.35 113.16 353.14 105.26 355.06 102.89 Z " fill="rgb(38,50,56)"/><path d=" M 362.35 101.47 C 361.751 101.506 361.231 101.06 361.177 100.462 C 361.123 99.864 361.554 99.332 362.15 99.26 C 362.451 99.07 362.679 98.785 362.8 98.45 C 363.126 97.803 363.169 97.05 362.92 96.37 C 362.691 96.005 362.694 95.54 362.927 95.178 C 363.161 94.816 363.583 94.622 364.01 94.68 C 364.437 94.738 364.792 95.039 364.92 95.45 C 365.47 96.805 365.382 98.337 364.68 99.62 C 364.283 100.528 363.49 101.203 362.53 101.45 C 362.471 101.465 362.411 101.472 362.35 101.47 L 362.35 101.47 Z " fill="rgb(38,50,56)"/><path d=" M 359.86 115.69 C 358.82 117.04 357.323 117.965 355.65 118.29 C 353.48 118.68 352.82 116.68 353.78 114.75 C 354.64 113 356.78 110.7 358.78 111.2 C 360.78 111.7 361.14 113.97 359.86 115.69 Z " fill="rgb(255,195,189)"/><path d=" M 345.48 109.28 C 345.38 109.91 344.97 110.38 344.56 110.33 C 344.15 110.28 343.89 109.73 343.98 109.1 C 344.07 108.47 344.49 108 344.91 108.1 C 345.33 108.2 345.57 108.65 345.48 109.28 Z " fill="rgb(38,50,56)"/><path d=" M 338.34 108.43 C 338.24 109.06 337.83 109.53 337.42 109.43 C 337.01 109.33 336.75 108.83 336.84 108.2 C 336.93 107.57 337.35 107.1 337.77 107.15 C 338.19 107.2 338.44 107.8 338.34 108.43 Z " fill="rgb(38,50,56)"/><path d=" M 340.52 108.68 C 339.724 110.304 338.715 111.814 337.52 113.17 C 338.237 113.743 339.172 113.967 340.07 113.78 L 340.52 108.68 Z " fill="rgb(237,132,126)"/><path d=" M 343 117.02 C 344.501 117.04 345.945 116.448 347 115.38 C 347.051 115.301 347.037 115.198 346.967 115.135 C 346.897 115.073 346.792 115.071 346.72 115.13 C 345.563 116.274 343.942 116.816 342.33 116.6 C 342.23 116.593 342.14 116.661 342.12 116.76 C 342.114 116.81 342.129 116.861 342.161 116.9 C 342.193 116.94 342.239 116.965 342.29 116.97 C 342.526 117 342.763 117.017 343 117.02 Z " fill="rgb(38,50,56)"/><path d=" M 348.35 105.65 C 348.409 105.638 348.464 105.61 348.51 105.57 C 348.581 105.5 348.622 105.405 348.622 105.305 C 348.622 105.205 348.581 105.11 348.51 105.04 C 347.739 104.13 346.565 103.665 345.38 103.8 C 345.176 103.833 345.037 104.026 345.07 104.23 C 345.103 104.434 345.296 104.573 345.5 104.54 C 346.434 104.449 347.354 104.823 347.96 105.54 C 348.057 105.651 348.21 105.694 348.35 105.65 Z " fill="rgb(38,50,56)"/><path d=" M 335.79 105.24 C 335.908 105.273 336.035 105.247 336.13 105.17 C 336.857 104.523 337.846 104.256 338.8 104.45 C 338.998 104.502 339.202 104.387 339.26 104.19 C 339.288 104.094 339.276 103.992 339.227 103.905 C 339.178 103.819 339.096 103.756 339 103.73 L 339 103.73 C 337.812 103.473 336.572 103.796 335.66 104.6 C 335.503 104.73 335.481 104.962 335.61 105.12 C 335.656 105.178 335.719 105.219 335.79 105.24 L 335.79 105.24 Z " fill="rgb(38,50,56)"/><path d=" M 348.81 161.91 L 344.43 159.19 C 343.8 158.797 343.039 158.673 342.317 158.846 C 341.595 159.019 340.973 159.474 340.59 160.11 L 340.08 160.97 C 339.455 161.998 339.568 163.314 340.36 164.22 L 343.36 167.69 C 343.36 167.69 345.99 173.82 349.04 172.2 L 351.36 168.2 L 348.81 161.91 Z " fill="rgb(255,195,189)"/><path d=" M 353.32 169.75 C 352.72 168.298 351.941 166.928 351 165.67 C 348.8 167.55 347 173.55 347 173.55 L 349.69 174.13 C 351.694 173.568 353.139 171.823 353.32 169.75 Z " fill="rgb(82,113,255)"/><path d=" M 386.83 214.48 L 334.91 214.48 C 331.51 214.48 329.31 217.85 329.99 222.01 L 336.47 261.28 C 337.16 265.44 340.47 268.81 343.88 268.81 L 380.4 268.81 L 386.83 214.48 Z " fill="rgb(82,113,255)"/><g opacity="0.5"><path d=" M 386.83 214.48 L 334.91 214.48 C 331.51 214.48 329.31 217.85 329.99 222.01 L 336.47 261.28 C 337.16 265.44 340.47 268.81 343.88 268.81 L 380.4 268.81 L 386.83 214.48 Z " fill="rgb(255,255,255)"/></g></g><g><path d=" M 147.28 318.87 L 148.78 318.87 C 149.332 318.87 149.78 318.422 149.78 317.87 L 158 193.97 L 151.81 193.97 L 146.31 317.73 C 146.27 318.013 146.353 318.3 146.539 318.518 C 146.724 318.736 146.994 318.864 147.28 318.87 Z " fill="rgb(82,113,255)"/><g opacity="0.30000000000000004"><path d=" M 147.28 318.87 L 148.78 318.87 C 149.332 318.87 149.78 318.422 149.78 317.87 L 158 193.97 L 151.81 193.97 L 146.31 317.73 C 146.27 318.013 146.353 318.3 146.539 318.518 C 146.724 318.736 146.994 318.864 147.28 318.87 Z " fill="rgb(255,255,255)"/></g><path d=" M 130.28 318.87 L 131.78 318.87 C 132.332 318.87 132.78 318.422 132.78 317.87 L 141 193.97 L 134.8 193.97 L 129.31 317.73 C 129.27 318.013 129.353 318.3 129.539 318.518 C 129.724 318.736 129.994 318.864 130.28 318.87 Z " fill="rgb(82,113,255)"/><g opacity="0.30000000000000004"><path d=" M 130.28 318.87 L 131.78 318.87 C 132.332 318.87 132.78 318.422 132.78 317.87 L 141 193.97 L 134.8 193.97 L 129.31 317.73 C 129.27 318.013 129.353 318.3 129.539 318.518 C 129.724 318.736 129.994 318.864 130.28 318.87 Z " fill="rgb(255,255,255)"/></g><path d=" M 339.93 318.87 L 338.43 318.87 C 337.878 318.87 337.43 318.422 337.43 317.87 L 329.21 193.97 L 335.4 193.97 L 340.9 317.73 C 340.94 318.013 340.857 318.3 340.671 318.518 C 340.486 318.736 340.216 318.864 339.93 318.87 Z " fill="rgb(82,113,255)"/><g opacity="0.30000000000000004"><path d=" M 339.93 318.87 L 338.43 318.87 C 337.878 318.87 337.43 318.422 337.43 317.87 L 329.21 193.97 L 335.4 193.97 L 340.9 317.73 C 340.94 318.013 340.857 318.3 340.671 318.518 C 340.486 318.736 340.216 318.864 339.93 318.87 Z " fill="rgb(255,255,255)"/></g><path d=" M 356.93 318.87 L 355.43 318.87 C 354.878 318.87 354.43 318.422 354.43 317.87 L 346.21 193.97 L 352.41 193.97 L 357.9 317.73 C 357.94 318.013 357.857 318.3 357.671 318.518 C 357.486 318.736 357.216 318.864 356.93 318.87 Z " fill="rgb(82,113,255)"/><g opacity="0.30000000000000004"><path d=" M 356.93 318.87 L 355.43 318.87 C 354.878 318.87 354.43 318.422 354.43 317.87 L 346.21 193.97 L 352.41 193.97 L 357.9 317.73 C 357.94 318.013 357.857 318.3 357.671 318.518 C 357.486 318.736 357.216 318.864 356.93 318.87 Z " fill="rgb(255,255,255)"/></g><rect x="122.78" y="191.45" width="241.3" height="2.55" transform="matrix(1,0,0,1,0,0)" fill="rgb(82,113,255)"/></g><g><path d=" M 118.76 151.97 L 116.48 168.74 C 115.76 174.32 115.01 179.92 114.48 185.42 C 114.41 186.11 114.36 186.78 114.3 187.42 L 114.22 188.42 C 114.237 188.254 114.237 188.086 114.22 187.92 C 114.201 187.76 114.164 187.602 114.11 187.45 C 114.069 187.33 114.019 187.213 113.96 187.1 C 113.92 187.019 113.873 186.942 113.82 186.87 C 113.64 186.64 113.62 186.67 113.67 186.72 C 113.772 186.829 113.886 186.926 114.01 187.01 C 114.431 187.298 114.872 187.556 115.33 187.78 C 117.71 188.868 120.167 189.781 122.68 190.51 C 127.92 192.1 133.43 193.51 138.87 194.82 L 138.25 199.59 C 132.434 199.415 126.639 198.817 120.91 197.8 C 117.875 197.29 114.892 196.503 112 195.45 C 111.15 195.122 110.325 194.735 109.53 194.29 C 109.039 194.01 108.571 193.693 108.13 193.34 C 107.518 192.856 106.982 192.283 106.54 191.64 C 106.222 191.165 105.966 190.651 105.78 190.11 C 105.678 189.782 105.598 189.448 105.54 189.11 C 105.503 188.778 105.483 188.444 105.48 188.11 L 105.48 187 C 105.48 186.26 105.48 185.52 105.54 184.79 C 105.78 178.95 106.31 173.25 106.93 167.55 C 107.55 161.85 108.27 156.2 109.16 150.55 L 118.76 151.97 Z " fill="rgb(127,62,59)"/><path d=" M 151.41 199.97 L 147.74 203.32 C 146.881 204.1 145.636 204.282 144.59 203.78 L 140.54 201.83 C 140.54 201.83 134.54 201.58 133.67 197.91 L 135.23 195.06 L 144.54 194.06 C 145.496 193.957 146.458 194.172 147.28 194.67 L 151.12 197.02 C 151.609 197.33 151.928 197.848 151.985 198.424 C 152.042 199.001 151.829 199.571 151.41 199.97 L 151.41 199.97 Z " fill="rgb(127,62,59)"/><path d=" M 129.45 117.53 C 130.45 123.29 131.21 133.8 127.09 137.53 C 127.09 137.53 137.09 142.79 143.72 151.97 C 150.72 146.39 144.87 138.06 144.87 138.06 C 138.53 136.35 138.87 131.62 140.08 127.21 L 129.45 117.53 Z " fill="rgb(127,62,59)"/><path d=" M 148.24 141.56 C 148.24 141.56 147.71 136.68 145.05 134.27 C 142.82 132.27 131.05 133.37 127.38 133.78 C 126.687 133.863 126.085 134.293 125.78 134.92 L 123.1 140.52 L 148.24 141.56 Z " fill="rgb(82,113,255)"/><g opacity="0.8"><path d=" M 148.24 141.56 C 148.24 141.56 147.71 136.68 145.05 134.27 C 142.82 132.27 131.05 133.37 127.38 133.78 C 126.687 133.863 126.085 134.293 125.78 134.92 L 123.1 140.52 L 148.24 141.56 Z " fill="rgb(255,255,255)"/></g><path d=" M 115.73 138.97 C 108.49 141.33 106.93 151.04 107.59 158.59 L 122.2 167.59 C 122.2 167.59 125.75 156.59 125.72 150.67 C 125.69 144.41 120.65 137.39 115.73 138.97 Z " fill="rgb(82,113,255)"/><path d=" M 118.56 165.4 C 118.188 165.408 117.828 165.268 117.56 165.01 C 117.5 164.945 117.447 164.875 117.4 164.8 C 117.345 164.727 117.301 164.646 117.27 164.56 C 117.237 164.479 117.211 164.395 117.19 164.31 C 117.18 164.224 117.18 164.136 117.19 164.05 C 117.181 163.676 117.326 163.315 117.59 163.05 C 118.129 162.542 118.971 162.542 119.51 163.05 C 119.774 163.315 119.919 163.676 119.91 164.05 C 119.92 164.136 119.92 164.224 119.91 164.31 C 119.894 164.396 119.868 164.481 119.83 164.56 C 119.802 164.646 119.762 164.726 119.71 164.8 L 119.54 165.01 C 119.279 165.267 118.926 165.407 118.56 165.4 Z " fill="rgb(255,255,255)"/><path d=" M 115.75 164.48 L 115.75 164.48 C 115.242 164.284 114.9 163.804 114.88 163.26 L 114.88 163.26 C 114.479 163.623 113.899 163.71 113.41 163.48 L 113.41 163.48 C 112.922 163.252 112.613 162.759 112.62 162.22 L 112.62 162.22 C 112.199 162.561 111.614 162.612 111.14 162.35 L 111.14 162.35 C 110.666 162.097 110.387 161.586 110.43 161.05 L 110.43 161.05 C 109.988 161.362 109.402 161.381 108.94 161.1 L 108.94 161.1 C 108.302 160.712 108.096 159.881 108.48 159.24 L 108.48 159.24 C 108.872 158.601 109.706 158.395 110.35 158.78 L 110.35 158.78 C 110.782 159.053 111.031 159.54 111 160.05 L 111 160.05 C 111.417 159.75 111.969 159.715 112.42 159.96 L 112.42 159.96 C 112.871 160.203 113.149 160.678 113.14 161.19 L 113.14 161.19 C 113.54 160.871 114.086 160.805 114.55 161.02 L 114.55 161.02 C 115.014 161.234 115.319 161.689 115.34 162.2 L 115.34 162.2 C 115.724 161.864 116.263 161.768 116.74 161.95 L 116.74 161.95 C 117.434 162.228 117.774 163.014 117.5 163.71 L 117.5 163.71 C 117.298 164.229 116.797 164.571 116.24 164.57 L 116.24 164.57 C 116.073 164.568 115.907 164.538 115.75 164.48 L 115.75 164.48 Z " fill="rgb(255,255,255)"/><path d=" M 107.59 159.97 C 107.5 159.98 107.41 159.98 107.32 159.97 C 107.234 159.954 107.149 159.928 107.07 159.89 C 106.984 159.862 106.904 159.822 106.83 159.77 L 106.63 159.6 C 106.565 159.541 106.508 159.473 106.46 159.4 C 106.46 159.32 106.37 159.24 106.33 159.16 C 106.299 159.078 106.272 158.995 106.25 158.91 C 106.245 158.82 106.245 158.73 106.25 158.64 C 106.245 158.553 106.245 158.467 106.25 158.38 C 106.272 158.292 106.299 158.205 106.33 158.12 C 106.363 158.038 106.407 157.961 106.46 157.89 C 106.511 157.815 106.567 157.745 106.63 157.68 L 106.83 157.51 C 106.906 157.462 106.986 157.422 107.07 157.39 L 107.32 157.31 C 107.762 157.23 108.216 157.368 108.54 157.68 C 108.603 157.745 108.659 157.815 108.71 157.89 C 108.759 157.963 108.803 158.04 108.84 158.12 C 108.873 158.204 108.896 158.291 108.91 158.38 C 108.92 158.466 108.92 158.554 108.91 158.64 C 108.92 158.73 108.92 158.82 108.91 158.91 C 108.896 158.996 108.873 159.08 108.84 159.16 C 108.84 159.24 108.76 159.32 108.71 159.4 C 108.662 159.473 108.605 159.541 108.54 159.6 C 108.283 159.841 107.942 159.973 107.59 159.97 L 107.59 159.97 Z " fill="rgb(255,255,255)"/><path d=" M 161.77 153.1 C 161.16 161.42 159.31 175.42 154.77 199 L 115.63 197.84 C 116.63 183.39 115.1 172.62 111.56 147.33 C 111.255 145.119 111.862 142.879 113.24 141.124 C 114.618 139.369 116.65 138.249 118.87 138.02 C 121.38 137.76 124.24 137.55 127.11 137.49 C 133.042 137.244 138.983 137.421 144.89 138.02 C 146.79 138.25 148.76 138.56 150.64 138.88 C 157.461 140.042 162.281 146.199 161.77 153.1 Z " fill="rgb(82,113,255)"/><path d=" M 149.7 106.97 C 149.79 107.74 150.28 108.32 150.78 108.25 C 151.28 108.18 151.62 107.52 151.53 106.75 C 151.44 105.98 150.95 105.4 150.45 105.46 C 149.95 105.52 149.61 106.17 149.7 106.97 Z " fill="rgb(38,50,56)"/><line x1="150.23" y1="105.51" x2="152.02" y2="104.75"/><path d=" M 150 108.14 C 150.898 109.819 152.022 111.366 153.34 112.74 C 152.614 113.408 151.628 113.719 150.65 113.59 L 150 108.14 Z " fill="rgb(99,15,15)"/><path d=" M 149.79 100.18 C 149.87 100.037 149.87 99.863 149.79 99.72 C 149.678 99.495 149.407 99.402 149.18 99.51 C 147.834 100.108 146.864 101.325 146.58 102.77 C 146.563 102.89 146.595 103.011 146.668 103.107 C 146.741 103.203 146.85 103.265 146.97 103.28 C 147.09 103.297 147.211 103.265 147.307 103.192 C 147.403 103.119 147.465 103.01 147.48 102.89 L 147.48 102.89 C 147.727 101.751 148.504 100.8 149.57 100.33 C 149.659 100.308 149.737 100.255 149.79 100.18 Z " fill="rgb(38,50,56)"/><path d=" M 123.06 106.77 C 124.78 116.18 125.31 120.2 130.68 124.5 C 138.76 130.96 149.95 126.79 151.08 117.05 C 152.08 108.28 149.08 94.36 139.38 91.7 C 135.021 90.488 130.345 91.618 127.021 94.688 C 123.697 97.757 122.198 102.328 123.06 106.77 L 123.06 106.77 Z " fill="rgb(127,62,59)"/><path d=" M 143.8 109.41 C 145.38 114.58 149.16 127.08 140.8 129.87 C 134.27 132.05 113.8 133.79 111.45 121.8 C 109.02 109.41 120.07 100.58 120.07 100.58 C 120.07 100.58 111.31 93.4 116.92 85.58 C 124.15 75.5 141.47 81.2 146.6 88.32 C 151.61 95.25 143.8 109.41 143.8 109.41 Z " fill="rgb(38,50,56)"/><path d=" M 128 131.59 C 124.228 131.586 120.493 130.852 117 129.43 C 112.36 127.43 109.65 124.34 109.16 120.49 C 107.52 107.42 119.68 100.24 119.81 100.17 L 120.29 101 C 120.17 101.07 108.56 107.94 110.12 120.37 C 110.68 124.78 114.38 127.25 117.39 128.54 C 123.33 131.1 131 131.08 132.86 129.72 L 133.43 130.5 C 132.49 131.21 130.45 131.59 128 131.59 Z " fill="rgb(38,50,56)"/><path d=" M 116.31 98.71 C 116.2 100.38 114.82 102.71 120.61 103.54 C 126.4 104.37 134.46 104.32 136.12 102.93 C 137.78 101.54 139.4 98.2 135.94 98.5 C 132.48 98.8 116.5 95.85 116.31 98.71 Z " fill="rgb(82,113,255)"/><path d=" M 140.63 110.88 C 141.575 112.627 143.17 113.931 145.07 114.51 C 147.59 115.25 148.89 113 148.22 110.6 C 147.61 108.44 145.56 105.45 143.02 105.76 C 140.48 106.07 139.5 108.73 140.63 110.88 Z " fill="rgb(127,62,59)"/><path d=" M 201.64 308.53 L 210.92 308.35 L 206.43 285.19 L 197.15 285.36 L 201.64 308.53 L 201.64 308.53 Z " fill="rgb(127,62,59)"/><path d=" M 208.6 298.44 C 211.05 307.69 220.08 317.44 220.08 317.44 L 207.2 314.16 L 201.57 306.16 L 202.57 304.04 L 208.6 298.44 Z " fill="rgb(127,62,59)"/><path d=" M 199.45 302.74 C 199.424 303.823 199.487 304.907 199.64 305.98 C 200.19 309.8 201.87 319.98 201.87 319.98 L 202.75 319.98 C 202.352 316.881 202.115 313.764 202.04 310.64 C 202.16 308.13 203.78 312.57 205.74 315.09 C 207.7 317.61 211.23 319.9 216.94 320.09 C 223.62 320.3 226.29 320.02 224.15 318.35 C 222.01 316.68 217.45 315.6 217.45 315.6 C 213.772 314.025 210.641 311.398 208.45 308.05 C 206.289 305.042 203.449 302.585 200.16 300.88 C 199.6 300.91 199.49 301.97 199.45 302.74 Z " fill="rgb(38,50,56)"/><path d=" M 234.51 277.06 L 246.35 277.43 L 233.1 257.73 L 224.9 264.74 L 234.51 277.06 L 234.51 277.06 Z " fill="rgb(127,62,59)"/><path d=" M 237.32 268.7 C 245.93 272.7 259.71 271.92 259.71 271.92 L 248.51 280.92 L 238.9 280.2 L 237.9 278.07 L 237.32 268.7 Z " fill="rgb(127,62,59)"/><path d=" M 235.5 278.91 C 236.276 279.664 237.112 280.353 238 280.97 C 241.14 283.16 249.63 288.77 249.63 288.77 L 250.17 288.08 C 247.641 286.263 245.208 284.317 242.88 282.25 C 241.1 280.43 245.37 282.2 248.43 282.38 C 251.49 282.56 255.35 281.38 259 276.98 C 263.29 271.87 264.72 269.58 262.18 270.12 C 259.64 270.66 256.02 273.5 256.02 273.5 C 252.62 275.32 248.726 276 244.91 275.44 C 241.366 275.079 237.789 275.634 234.52 277.05 C 234.25 277.55 234.92 278.33 235.5 278.91 Z " fill="rgb(38,50,56)"/><path d=" M 141.1 198.32 C 141.1 198.32 204.46 188.97 211 205.19 C 222.42 233.45 238.53 265.83 238.53 265.83 L 230.75 272.27 C 230.75 272.27 203.12 246.69 193.3 218.27 C 181.56 222.07 144.21 234.27 130.53 234.27 C 115.92 234.27 109.95 221.82 115.23 201.13 C 115.705 199.307 117.346 198.031 119.23 198.02 C 128.5 198.11 141.1 198.32 141.1 198.32 Z " fill="rgb(38,50,56)"/><path d=" M 147.17 206.57 C 147.17 206.57 199.17 205.01 199.62 223.43 C 200.34 253.9 208.93 297.56 208.93 297.56 L 199.44 298.44 C 199.44 298.44 183.93 263.71 179.83 233.97 C 161.31 235.17 144.23 234.34 130.55 234.34 C 115.22 234.34 113.95 217.51 128.87 197.86 C 138 197.84 147.17 206.57 147.17 206.57 Z " fill="rgb(38,50,56)"/><path d=" M 115.09 195.52 L 114 198.97 C 113.85 199.24 114.16 199.52 114.62 199.54 L 154.9 200.73 C 155.25 200.73 155.55 200.58 155.58 200.36 L 156.04 196.87 C 156.04 196.62 155.77 196.41 155.38 196.4 L 115.75 195.22 C 115.492 195.192 115.239 195.307 115.09 195.52 Z " fill="rgb(255,255,255)"/><path d=" M 120.28 200.11 L 119.22 200.11 C 119.01 200.11 118.85 199.99 118.87 199.86 L 119.5 195.32 C 119.5 195.19 119.71 195.09 119.92 195.09 L 120.98 195.09 C 121.19 195.09 121.35 195.21 121.33 195.34 L 120.7 199.87 C 120.68 200.02 120.49 200.12 120.28 200.11 Z " fill="rgb(38,50,56)"/><path d=" M 151.89 201.06 L 150.83 201.06 C 150.62 201.06 150.46 200.94 150.48 200.81 L 151.12 196.27 C 151.12 196.14 151.32 196.04 151.53 196.04 L 152.59 196.04 C 152.81 196.04 152.96 196.16 152.95 196.29 L 152.31 200.83 C 152.29 200.97 152.11 201.06 151.89 201.06 Z " fill="rgb(38,50,56)"/><path d=" M 136.09 200.58 L 135.03 200.58 C 134.81 200.58 134.66 200.46 134.68 200.33 L 135.31 195.79 C 135.31 195.66 135.52 195.56 135.73 195.56 L 136.79 195.56 C 137 195.56 137.16 195.68 137.14 195.81 L 136.51 200.35 C 136.49 200.49 136.3 200.59 136.09 200.58 Z " fill="rgb(38,50,56)"/><path d=" M 184.33 156.58 L 209.62 156.58 C 210.001 156.581 210.36 156.761 210.589 157.065 C 210.819 157.369 210.893 157.763 210.79 158.13 L 201.33 190.58 C 201.182 191.097 200.708 191.453 200.17 191.45 L 174.87 191.45 C 174.488 191.454 174.126 191.275 173.897 190.969 C 173.668 190.663 173.598 190.266 173.71 189.9 L 183.16 157.45 C 183.312 156.931 183.789 156.576 184.33 156.58 Z " fill="rgb(82,113,255)"/><path d=" M 184.79 157.77 L 209.38 158.35 L 199.67 188.96 L 175.08 188.37 L 184.79 157.77 L 184.79 157.77 Z " fill="rgb(224,224,224)"/><path d=" M 184.02 157.47 L 208.61 157.57 L 199.5 188.36 L 174.91 188.26 L 184.02 157.47 L 184.02 157.47 Z " fill="rgb(255,255,255)"/><path d=" M 161.84 158.11 C 161.84 159.11 161.99 160.29 162.07 161.4 C 162.15 162.51 162.3 163.67 162.45 164.8 Q 162.87 168.19 163.57 171.48 C 164.019 173.618 164.613 175.723 165.35 177.78 C 165.72 178.78 166.13 179.78 166.57 180.66 C 166.79 181.12 167.03 181.55 167.27 181.99 L 167.64 182.6 C 167.64 182.6 167.57 182.6 167.64 182.6 C 168.099 183.018 168.641 183.335 169.23 183.53 C 170.166 183.893 171.129 184.184 172.11 184.4 C 174.318 184.866 176.552 185.2 178.8 185.4 C 183.42 185.85 188.25 186.07 192.97 186.17 L 193.45 190.96 C 188.535 191.935 183.548 192.5 178.54 192.65 C 175.939 192.73 173.336 192.623 170.75 192.33 C 169.333 192.157 167.932 191.872 166.56 191.48 C 164.805 191.016 163.174 190.172 161.78 189.01 C 161.313 188.606 160.891 188.154 160.52 187.66 L 159.88 186.76 C 159.47 186.16 159.07 185.56 158.73 184.95 C 158.017 183.761 157.386 182.525 156.84 181.25 C 155.772 178.806 154.909 176.277 154.26 173.69 C 153.613 171.175 153.115 168.624 152.77 166.05 C 152.6 164.78 152.47 163.5 152.36 162.21 C 152.25 160.92 152.18 159.69 152.16 158.21 L 161.84 158.11 Z " fill="rgb(127,62,59)"/><path d=" M 158.55 143.36 C 164.85 149.29 163.33 164.74 163.33 164.74 L 151.27 166.85 C 151.27 166.85 143.82 155.77 146.44 151.13 C 149.16 146.29 155.15 140.15 158.55 143.36 Z " fill="rgb(82,113,255)"/><path d=" M 163.33 166.1 C 162.956 166.106 162.596 165.962 162.33 165.7 C 162.266 165.637 162.209 165.566 162.16 165.49 C 162.114 165.417 162.074 165.34 162.04 165.26 C 162.02 165.164 162.006 165.068 162 164.97 C 161.995 164.883 161.995 164.797 162 164.71 C 161.987 164.337 162.128 163.976 162.39 163.71 C 162.455 163.648 162.526 163.591 162.6 163.54 C 162.671 163.49 162.748 163.45 162.83 163.42 C 162.914 163.384 163.001 163.357 163.09 163.34 C 163.488 163.262 163.9 163.367 164.213 163.624 C 164.526 163.881 164.709 164.265 164.71 164.67 C 164.72 164.756 164.72 164.844 164.71 164.93 C 164.694 165.02 164.667 165.107 164.63 165.19 C 164.6 165.272 164.56 165.349 164.51 165.42 C 164.461 165.496 164.404 165.567 164.34 165.63 C 164.085 165.923 163.718 166.093 163.33 166.1 Z " fill="rgb(255,255,255)"/><path d=" M 152.37 166.82 C 152.307 166.072 152.862 165.414 153.61 165.35 L 153.61 165.35 C 154.121 165.303 154.614 165.551 154.88 165.99 L 154.88 165.99 C 155.044 165.505 155.464 165.151 155.97 165.07 L 155.97 165.07 C 156.479 165.002 156.983 165.221 157.28 165.64 L 157.28 165.64 C 157.396 165.144 157.784 164.756 158.28 164.64 L 158.28 164.64 C 158.784 164.535 159.303 164.725 159.62 165.13 L 159.62 165.13 C 159.74 164.636 160.126 164.25 160.62 164.13 L 160.62 164.13 C 160.973 164.037 161.349 164.09 161.662 164.279 C 161.974 164.467 162.197 164.774 162.28 165.13 L 162.28 165.13 C 162.37 165.483 162.315 165.857 162.128 166.169 C 161.94 166.481 161.634 166.705 161.28 166.79 L 161.28 166.79 C 160.758 166.924 160.207 166.74 159.87 166.32 L 159.87 166.32 C 159.755 166.849 159.34 167.26 158.81 167.37 L 158.81 167.37 C 158.28 167.469 157.741 167.25 157.43 166.81 L 157.43 166.81 C 157.295 167.336 156.858 167.73 156.32 167.81 L 156.32 167.81 C 155.785 167.887 155.255 167.64 154.97 167.18 L 154.97 167.18 C 154.795 167.69 154.337 168.05 153.8 168.1 L 153.69 168.1 C 152.987 168.076 152.416 167.522 152.37 166.82 L 152.37 166.82 Z " fill="rgb(255,255,255)"/><path d=" M 151.27 168.21 C 151.18 168.22 151.09 168.22 151 168.21 L 150.75 168.13 C 150.667 168.096 150.587 168.056 150.51 168.01 L 150.31 167.84 C 150.243 167.779 150.185 167.708 150.14 167.63 C 150.091 167.557 150.047 167.48 150.01 167.4 C 149.977 167.316 149.954 167.229 149.94 167.14 C 149.93 167.054 149.93 166.966 149.94 166.88 C 149.93 166.79 149.93 166.7 149.94 166.61 C 149.954 166.524 149.977 166.44 150.01 166.36 C 150.01 166.28 150.09 166.2 150.14 166.12 C 150.188 166.047 150.245 165.979 150.31 165.92 L 150.51 165.75 C 150.585 165.7 150.665 165.66 150.75 165.63 C 150.829 165.592 150.914 165.566 151 165.55 C 151.443 165.46 151.902 165.599 152.22 165.92 C 152.285 165.979 152.342 166.047 152.39 166.12 C 152.44 166.2 152.48 166.28 152.52 166.36 C 152.551 166.442 152.578 166.525 152.6 166.61 C 152.605 166.7 152.605 166.79 152.6 166.88 C 152.605 166.967 152.605 167.053 152.6 167.14 C 152.578 167.228 152.551 167.315 152.52 167.4 C 152.483 167.48 152.439 167.557 152.39 167.63 C 152.342 167.707 152.285 167.777 152.22 167.84 C 151.963 168.081 151.622 168.213 151.27 168.21 Z " fill="rgb(255,255,255)"/><path d=" M 204.2 181.19 L 200.02 180.91 C 198.979 180.837 197.944 181.115 197.08 181.7 L 189.41 186.85 L 189.35 190.1 C 191.81 192.96 197.25 190.4 197.25 190.4 L 202.3 190.23 C 203.124 190.209 203.85 189.685 204.13 188.91 L 205.96 183.91 C 206.192 183.312 206.123 182.639 205.774 182.101 C 205.426 181.562 204.84 181.224 204.2 181.19 Z " fill="rgb(127,62,59)"/><path d=" M 117.59 323.38 L 118.72 323.38 C 119.204 323.333 119.583 322.945 119.62 322.46 L 126.62 274.02 L 121.33 274.02 L 116.72 322.14 C 116.665 322.421 116.727 322.711 116.891 322.945 C 117.055 323.179 117.307 323.336 117.59 323.38 Z " fill="rgb(82,113,255)"/><g opacity="0.30000000000000004"><path d=" M 117.59 323.38 L 118.72 323.38 C 119.204 323.333 119.583 322.945 119.62 322.46 L 126.62 274.02 L 121.33 274.02 L 116.72 322.14 C 116.665 322.421 116.727 322.711 116.891 322.945 C 117.055 323.179 117.307 323.336 117.59 323.38 Z " fill="rgb(0,0,0)"/></g><path d=" M 103.09 323.38 L 104.22 323.38 C 104.704 323.333 105.083 322.945 105.12 322.46 L 112.12 274.02 L 106.83 274.02 L 102.22 322.14 C 102.165 322.421 102.227 322.711 102.391 322.945 C 102.555 323.179 102.807 323.336 103.09 323.38 Z " fill="rgb(82,113,255)"/><g opacity="0.30000000000000004"><path d=" M 103.09 323.38 L 104.22 323.38 C 104.704 323.333 105.083 322.945 105.12 322.46 L 112.12 274.02 L 106.83 274.02 L 102.22 322.14 C 102.165 322.421 102.227 322.711 102.391 322.945 C 102.555 323.179 102.807 323.336 103.09 323.38 Z " fill="rgb(0,0,0)"/></g><path d=" M 183.89 323.38 L 182.75 323.38 C 182.27 323.328 181.896 322.941 181.86 322.46 L 174.86 274.02 L 180.14 274.02 L 184.75 322.14 C 184.805 322.419 184.745 322.709 184.583 322.942 C 184.421 323.176 184.171 323.334 183.89 323.38 L 183.89 323.38 Z " fill="rgb(82,113,255)"/><g opacity="0.30000000000000004"><path d=" M 183.89 323.38 L 182.75 323.38 C 182.27 323.328 181.896 322.941 181.86 322.46 L 174.86 274.02 L 180.14 274.02 L 184.75 322.14 C 184.805 322.419 184.745 322.709 184.583 322.942 C 184.421 323.176 184.171 323.334 183.89 323.38 L 183.89 323.38 Z " fill="rgb(0,0,0)"/></g><path d=" M 198.39 323.38 L 197.25 323.38 C 196.77 323.328 196.396 322.941 196.36 322.46 L 189.36 274.02 L 194.64 274.02 L 199.25 322.14 C 199.305 322.419 199.245 322.709 199.083 322.942 C 198.921 323.176 198.671 323.334 198.39 323.38 L 198.39 323.38 Z " fill="rgb(82,113,255)"/><g opacity="0.30000000000000004"><path d=" M 198.39 323.38 L 197.25 323.38 C 196.77 323.328 196.396 322.941 196.36 322.46 L 189.36 274.02 L 194.64 274.02 L 199.25 322.14 C 199.305 322.419 199.245 322.709 199.083 322.942 C 198.921 323.176 198.671 323.334 198.39 323.38 L 198.39 323.38 Z " fill="rgb(0,0,0)"/></g><path d=" M 217.18 216.6 L 181.58 216.6 C 175.26 194.66 152.58 177.36 129.26 177.36 L 117.7 177.36 C 93.34 177.36 77.62 196.36 82.58 219.7 C 83.519 224.001 85.043 228.153 87.11 232.04 L 92.73 266.04 C 93.45 270.43 96.96 273.99 100.55 273.99 L 207.71 273.99 C 211.3 273.99 214.81 270.43 215.53 266.04 L 222.38 224.52 C 223.11 220.16 220.78 216.6 217.18 216.6 Z " fill="rgb(82,113,255)"/><g opacity="0.5"><path d=" M 217.18 216.6 L 181.58 216.6 C 175.26 194.66 152.58 177.36 129.26 177.36 L 117.7 177.36 C 93.34 177.36 77.62 196.36 82.58 219.7 C 83.519 224.001 85.043 228.153 87.11 232.04 L 92.73 266.04 C 93.45 270.43 96.96 273.99 100.55 273.99 L 207.71 273.99 C 211.3 273.99 214.81 270.43 215.53 266.04 L 222.38 224.52 C 223.11 220.16 220.78 216.6 217.18 216.6 Z " fill="rgb(255,255,255)"/></g></g><g><rect x="204.37" y="57.12" width="8.17" height="1" transform="matrix(1,0,0,1,0,0)" fill="rgb(82,113,255)"/><path d=" M 174.32 68.9 L 173.32 68.9 L 173.32 63.97 C 173.326 60.18 176.4 57.11 180.19 57.11 L 198.42 57.11 L 198.42 58.11 L 180.19 58.11 C 176.952 58.11 174.326 60.732 174.32 63.97 L 174.32 68.9 Z " fill="rgb(82,113,255)"/><path d=" M 180.19 60.62 L 271.36 60.62 C 272.251 60.62 273.106 60.974 273.736 61.604 C 274.366 62.234 274.72 63.089 274.72 63.98 L 274.72 99.73 C 274.72 100.624 274.365 101.481 273.733 102.113 C 273.101 102.745 272.244 103.1 271.35 103.1 L 180.19 103.1 C 179.296 103.1 178.439 102.745 177.807 102.113 C 177.175 101.481 176.82 100.624 176.82 99.73 L 176.82 63.97 C 176.823 63.079 177.179 62.225 177.811 61.597 C 178.443 60.969 179.299 60.617 180.19 60.62 L 180.19 60.62 Z " fill="rgb(82,113,255)"/><path d=" M 267.05 84.12 L 184.5 84.12 C 183.252 84.12 182.24 83.108 182.24 81.86 L 182.24 81.86 C 182.24 80.612 183.252 79.6 184.5 79.6 L 267.05 79.6 C 268.298 79.6 269.31 80.612 269.31 81.86 L 269.31 81.86 C 269.31 83.108 268.298 84.12 267.05 84.12 L 267.05 84.12 Z " fill="rgb(255,255,255)"/><path d=" M 249.38 93.51 L 184.5 93.51 C 183.252 93.51 182.24 92.498 182.24 91.25 L 182.24 91.25 C 182.235 90.647 182.47 90.067 182.895 89.639 C 183.319 89.211 183.897 88.97 184.5 88.97 L 249.38 88.97 C 250.628 88.97 251.64 89.982 251.64 91.23 L 251.64 91.23 C 251.645 91.833 251.41 92.413 250.985 92.841 C 250.561 93.269 249.983 93.51 249.38 93.51 L 249.38 93.51 Z " fill="rgb(255,255,255)"/><path d=" M 212.34 74.73 L 184.5 74.73 C 183.252 74.73 182.24 73.718 182.24 72.47 L 182.24 72.47 C 182.24 71.222 183.252 70.21 184.5 70.21 L 212.34 70.21 C 213.588 70.21 214.6 71.222 214.6 72.47 L 214.6 72.47 C 214.6 73.718 213.588 74.73 212.34 74.73 L 212.34 74.73 Z " fill="rgb(255,255,255)"/><path d=" M 249.24 74.73 L 221.4 74.73 C 220.152 74.73 219.14 73.718 219.14 72.47 L 219.14 72.47 C 219.14 71.222 220.152 70.21 221.4 70.21 L 249.24 70.21 C 250.488 70.21 251.5 71.222 251.5 72.47 L 251.5 72.47 C 251.5 73.718 250.488 74.73 249.24 74.73 L 249.24 74.73 Z " fill="rgb(255,255,255)"/><path d=" M 182.24 100.39 L 182.24 111.22 C 182.24 112.167 182.775 113.033 183.622 113.456 C 184.469 113.88 185.482 113.788 186.24 113.22 L 202.84 100.38 L 182.24 100.39 Z " fill="rgb(82,113,255)"/><path d=" M 322.81 6.97 L 231.64 6.97 C 230.746 6.97 229.889 7.325 229.257 7.957 C 228.625 8.589 228.27 9.446 228.27 10.34 L 228.27 46.09 C 228.27 46.984 228.625 47.841 229.257 48.473 C 229.889 49.105 230.746 49.46 231.64 49.46 L 303.64 49.46 L 316.7 59.56 C 317.458 60.128 318.471 60.22 319.318 59.796 C 320.165 59.373 320.7 58.507 320.7 57.56 L 320.7 49.44 L 322.75 49.44 C 323.644 49.44 324.501 49.085 325.133 48.453 C 325.765 47.821 326.12 46.964 326.12 46.07 L 326.12 10.34 C 326.12 8.502 324.648 7.003 322.81 6.97 L 322.81 6.97 Z " fill="rgb(255,255,255)"/><path d=" M 318.25 60.59 C 317.584 60.586 316.939 60.365 316.41 59.96 L 303.49 49.96 L 231.64 49.96 C 229.505 49.955 227.775 48.225 227.77 46.09 L 227.77 10.34 C 227.775 8.205 229.505 6.475 231.64 6.47 L 322.81 6.47 C 324.945 6.475 326.675 8.205 326.68 10.34 L 326.68 46.09 C 326.675 48.225 324.945 49.955 322.81 49.96 L 321.26 49.96 L 321.26 57.58 C 321.26 59.237 319.917 60.58 318.26 60.58 L 318.25 60.59 Z  M 231.64 7.47 C 230.057 7.475 228.775 8.757 228.77 10.34 L 228.77 46.09 C 228.775 47.673 230.057 48.955 231.64 48.96 L 303.84 48.96 L 317 59.16 C 317.603 59.637 318.426 59.725 319.117 59.388 C 319.807 59.052 320.244 58.349 320.24 57.58 L 320.24 48.97 L 322.79 48.97 C 324.373 48.965 325.655 47.683 325.66 46.1 L 325.66 10.34 C 325.655 8.757 324.373 7.475 322.79 7.47 L 231.64 7.47 Z " fill="rgb(82,113,255)"/><path d=" M 275.28 30.48 L 318.5 30.48 C 319.748 30.48 320.76 29.468 320.76 28.22 L 320.76 28.22 C 320.749 26.978 319.742 25.975 318.5 25.97 L 275.28 25.97 C 274.03 25.976 273.02 26.99 273.02 28.24 L 273.02 28.24 C 273.031 29.48 274.04 30.48 275.28 30.48 Z " fill="rgb(82,113,255)"/><path d=" M 245.1 30.48 L 266.5 30.48 C 267.748 30.48 268.76 29.468 268.76 28.22 L 268.76 28.22 C 268.749 26.978 267.742 25.975 266.5 25.97 L 245.1 25.97 C 243.85 25.976 242.84 26.99 242.84 28.24 L 242.84 28.24 C 242.851 29.48 243.86 30.48 245.1 30.48 Z " fill="rgb(82,113,255)"/><path d="M 318.5 39.87 L 253.61 39.87 C 252.363 39.87 251.35 38.857 251.35 37.61 L 251.35 37.61 C 251.35 36.363 252.363 35.35 253.61 35.35 L 318.5 35.35 C 319.747 35.35 320.76 36.363 320.76 37.61 L 320.76 37.61 C 320.76 38.857 319.747 39.87 318.5 39.87 Z" style="stroke:none;fill:#5271FF;stroke-miterlimit:10;"/><path d=" M 236 21.09 L 318.5 21.09 C 319.748 21.09 320.76 20.078 320.76 18.83 L 320.76 18.83 C 320.76 17.58 319.75 16.566 318.5 16.56 L 236 16.56 C 234.75 16.566 233.74 17.58 233.74 18.83 L 233.74 18.83 C 233.74 20.078 234.752 21.09 236 21.09 L 236 21.09 Z " fill="rgb(82,113,255)"/></g></g></g></svg>